<!-- Generated by IcoMoon.io -->
<svg version="1.1" xmlns="http://www.w3.org/2000/svg" width="1024" height="1024" viewBox="0 0 1024 1024">
<g id="icomoon-ignore">
</g>
<path fill="#455a64" d="M929.278 298.24c15.36-43.52 30.72-128-10.24-222.72-115.2 0-212.48 81.92-227.84 97.28-56.32-12.8-117.76-17.92-179.199-17.92-64 0-125.439 7.68-184.32 20.48-79.36-81.92-184.32-99.84-225.279-99.84 0 0-23.040 46.080-23.040 128 0 51.2 12.8 81.92 20.48 97.28-61.44 64-99.84 151.040-99.84 263.679 0 286.719 181.76 384 512 384s512-97.28 512-384c0-117.76-35.84-204.8-94.72-266.24z"></path>
<path fill="#ffccbc" d="M511.999 894.72c-209.919 0-384-35.84-384-230.4 0-74.24 40.96-115.2 69.12-140.799 64-56.32 171.519-30.72 314.88-30.72 104.96 0 194.559-17.92 266.24 5.12s117.76 89.6 117.76 161.28c0 202.239-102.4 235.52-384 235.52z"></path>
<path fill="#d84315" d="M537.598 766.72c0 15.36-10.24 25.6-25.6 25.6s-25.6-10.24-25.6-25.6 10.24-25.6 25.6-25.6 25.6 10.24 25.6 25.6zM575.998 830.721c5.12-5.12 5.12-12.8 0-17.92s-12.8-5.12-17.92 0c-23.040 23.040-66.56 23.040-89.6 0-5.12-5.12-12.8-5.12-17.92 0s-5.12 12.8 0 17.92c17.92 17.92 38.4 25.6 64 25.6s43.52-10.24 61.44-25.6z"></path>
<path fill="#fff" d="M383.999 651.52c0 64-33.28 115.2-76.8 115.2s-76.8-51.2-76.8-115.2 33.28-115.2 76.8-115.2 76.8 51.2 76.8 115.2zM716.799 536.32c-43.52 0-76.8 51.2-76.8 115.2s33.28 115.2 76.8 115.2c43.52 0 76.8-51.2 76.8-115.2s-33.28-115.2-76.8-115.2z"></path>
<path fill="#6d4c41" d="M767.998 664.32c0 43.52-23.040 76.8-51.2 76.8s-51.2-33.28-51.2-76.8c0-5.12 0-12.8 2.56-17.92 2.56 10.24 12.8 17.92 23.040 17.92 15.36 0 25.6-10.24 25.6-25.6s-10.24-25.6-25.6-25.6c-5.12 0-10.24 2.56-15.36 5.12 10.24-17.92 23.040-30.72 40.96-30.72 28.16 0 51.2 33.28 51.2 76.8zM307.199 587.52c-17.92 0-30.72 12.8-40.96 30.72 5.12-2.56 10.24-5.12 15.36-5.12 15.36 0 25.6 10.24 25.6 25.6s-10.24 25.6-25.6 25.6c-10.24 0-20.48-7.68-23.040-17.92 0 5.12-2.56 12.8-2.56 17.92 0 43.52 23.040 76.8 51.2 76.8s51.2-33.28 51.2-76.8-23.040-76.8-51.2-76.8z"></path>
</svg>
